<svg data-v-423bf9ae="" xmlns="http://www.w3.org/2000/svg" viewBox="0 0 184.86486944266082 60" class="font"><!----><!----><defs data-v-423bf9ae=""><linearGradient data-v-423bf9ae="" gradientTransform="rotate(25)" id="7bf3259b-d8b8-446a-9207-79d29ae44a77" x1="0%" y1="0%" x2="100%" y2="0%"><stop data-v-423bf9ae="" offset="0%" style="stop-color: rgb(120, 49, 146); stop-opacity: 1;"></stop><stop data-v-423bf9ae="" offset="100%" style="stop-color: rgb(89, 188, 200); stop-opacity: 1;"></stop></linearGradient></defs><g data-v-423bf9ae="" id="80cda2fe-2d44-47f9-845d-b1feca3f07b6" fill="url(#7bf3259b-d8b8-446a-9207-79d29ae44a77)" transform="matrix(3.8610038704816994,0,0,3.8610038704816994,1.2355184515316324,-11.119691112006961)"><path d="M3.39 7.01L3.39 7.01L4.21 6.89L4.21 6.89Q4.41 6.89 4.42 6.99L4.42 6.99L4.42 6.99Q4.42 7.25 3.93 7.46L3.93 7.46L3.93 7.46Q3.43 7.67 2.66 7.67L2.66 7.67L2.66 7.67Q1.89 7.67 1.39 7.30L1.39 7.30L1.39 7.30Q0.88 6.93 0.88 6.27L0.88 6.27L0.88 6.27Q0.88 5.70 1.93 4.77L1.93 4.77L1.93 4.77Q2.48 4.30 3.23 3.88L3.23 3.88L3.23 3.88Q3.98 3.46 5.13 3.17L5.13 3.17L5.13 3.17Q6.29 2.88 7.46 2.88L7.46 2.88L7.46 2.88Q8.64 2.88 9.42 3.16L9.42 3.16L9.42 3.16Q10.19 3.43 10.57 3.84L10.57 3.84L10.57 3.84Q11.28 4.61 11.28 5.21L11.28 5.21L11.28 5.21Q11.28 5.54 11.11 5.86L11.11 5.86L11.11 5.86Q10.93 6.17 10.61 6.37L10.61 6.37L10.61 6.37Q8.08 7.83 6.83 8.22L6.83 8.22L6.83 8.22Q6.61 8.32 6.61 8.39L6.61 8.39L6.61 8.39Q6.61 8.41 6.80 8.44L6.80 8.44L6.80 8.44Q7.90 8.44 8.88 8.83L8.88 8.83L8.88 8.83Q9.42 9.06 9.76 9.51L9.76 9.51L9.76 9.51Q10.09 9.95 10.09 10.66L10.09 10.66L10.09 10.66Q10.09 11.37 9.53 12.03L9.53 12.03L9.53 12.03Q8.96 12.68 8.11 13.10L8.11 13.10L8.11 13.10Q7.27 13.52 6.24 13.82L6.24 13.82L6.24 13.82Q4.35 14.34 2.79 14.34L2.79 14.34L2.79 14.34Q1.95 14.34 1.18 14.13L1.18 14.13L1.18 14.13Q-0.32 13.72-0.32 12.92L-0.32 12.92L-0.32 12.92Q-0.32 12.43 0.09 11.96L0.09 11.96L0.09 11.96Q0.50 11.49 0.87 11.47L0.87 11.47L0.87 11.47Q0.88 11.47 1.12 11.52L1.12 11.52L1.12 11.52Q1.78 11.68 2.79 11.68L2.79 11.68L2.79 11.68Q3.79 11.68 5.16 11.31L5.16 11.31L5.16 11.31Q6.52 10.95 7.48 10.44L7.48 10.44L7.48 10.44Q8.43 9.93 8.43 9.51L8.43 9.51L8.43 9.51Q8.43 9.00 6.43 9.00L6.43 9.00L6.43 9.00Q5.67 9.00 5.25 9.09L5.25 9.09L5.25 9.09Q5.15 9.10 4.30 10.08L4.30 10.08L4.30 10.08Q3.46 11.06 3.23 11.34L3.23 11.34L3.23 11.34Q3.00 11.55 2.79 11.55L2.79 11.55L2.79 11.55Q2.59 11.55 2.51 11.47L2.51 11.47L2.51 11.47Q2.42 11.38 2.42 11.31L2.42 11.31L2.42 11.31Q2.42 11.24 2.48 11.14L2.48 11.14L2.48 11.14Q2.53 11.05 2.86 10.61L2.86 10.61L2.86 10.61Q3.74 9.42 3.74 9.34L3.74 9.34L3.74 9.34Q3.74 9.27 3.62 9.08L3.62 9.08L3.62 9.08Q3.50 8.89 3.50 8.75L3.50 8.75L3.50 8.75Q3.50 8.61 3.72 8.53L3.72 8.53L3.72 8.53Q3.93 8.44 4.25 8.37L4.25 8.37L4.25 8.37Q4.56 8.29 4.66 8.24L4.66 8.24L4.66 8.24Q4.75 8.19 5.40 7.39L5.40 7.39L5.40 7.39Q6.05 6.59 6.15 6.50L6.15 6.50L6.15 6.50Q6.26 6.40 6.45 6.40L6.45 6.40L6.45 6.40Q6.79 6.40 6.79 6.66L6.79 6.66L6.79 6.66Q6.79 6.82 6.52 7.20L6.52 7.20L6.52 7.20Q6.24 7.57 6.24 7.62L6.24 7.62L6.24 7.62Q6.24 7.67 6.26 7.69L6.26 7.69L6.26 7.69Q6.62 7.69 7.98 6.99L7.98 6.99L7.98 6.99Q9.34 6.29 9.69 6.01L9.69 6.01L9.69 6.01Q9.83 5.95 9.83 5.82L9.83 5.82L9.83 5.82Q9.83 5.54 8.97 5.54L8.97 5.54L8.97 5.54Q7.67 5.54 6.28 5.85L6.28 5.85L6.28 5.85Q4.89 6.16 4.08 6.49L4.08 6.49L4.08 6.49Q3.28 6.82 3.28 6.97L3.28 6.97L3.28 6.97Q3.28 7.01 3.39 7.01ZM13.09 10.44L13.09 10.44L13.09 10.44Q12.01 11.90 12.01 12.43L12.01 12.43L12.01 12.43Q12.01 12.61 12.19 12.61L12.19 12.61L12.19 12.61Q12.68 12.61 14.06 11.83L14.06 11.83L14.06 11.83Q15.43 11.05 15.53 11.05L15.53 11.05L15.53 11.05Q15.72 11.05 15.72 11.21L15.72 11.21L15.72 11.24L15.72 11.24Q15.71 11.33 14.94 11.86L14.94 11.86L14.94 11.86Q14.17 12.39 13.02 12.94L13.02 12.94L13.02 12.94Q11.87 13.48 11.10 13.48L11.10 13.48L11.10 13.48Q9.88 13.48 9.88 12.07L9.88 12.07L9.88 12.07Q9.88 10.79 11.25 9.12L11.25 9.12L11.25 9.12Q12.61 7.45 14.45 6.27L14.45 6.27L14.45 6.27Q16.28 5.10 17.57 5.10L17.57 5.10L17.57 5.10Q18.13 5.10 18.38 5.42L18.38 5.42L18.38 5.42Q18.63 5.74 18.63 6.02L18.63 6.02L18.63 6.02Q18.63 6.58 17.94 7.32L17.94 7.32L17.94 7.32Q17.25 8.06 16.31 8.70L16.31 8.70L16.31 8.70Q15.37 9.34 14.47 9.82L14.47 9.82L14.47 9.82Q13.57 10.30 13.09 10.44ZM17.51 6.22L17.51 6.22L17.51 6.22Q17.29 6.22 16.44 6.94L16.44 6.94L16.44 6.94Q15.60 7.67 14.87 8.41L14.87 8.41L14.14 9.14L14.14 9.14Q14.03 9.25 14.03 9.32L14.03 9.32L14.03 9.32Q14.03 9.38 14.15 9.38L14.15 9.38L14.15 9.38Q14.71 9.38 16.14 8.05L16.14 8.05L16.14 8.05Q17.57 6.72 17.57 6.27L17.57 6.27L17.57 6.27Q17.57 6.22 17.51 6.22ZM18.82 10.11L18.82 10.11L18.82 10.11Q18.82 10.49 19.26 10.49L19.26 10.49L19.26 10.49Q19.68 10.49 20.19 10.28L20.19 10.28L20.19 10.28Q20.69 10.07 20.73 10.07L20.73 10.07L20.73 10.07Q20.78 10.07 20.82 10.14L20.82 10.14L20.82 10.14Q20.87 10.21 20.87 10.28L20.87 10.28L20.87 10.28Q20.87 10.43 20.22 10.68L20.22 10.68L20.22 10.68Q19.57 10.92 19.28 10.92L19.28 10.92L19.28 10.92Q18.98 10.92 18.86 10.91L18.86 10.91L18.86 10.91Q18.75 10.91 18.68 11.06L18.68 11.06L18.68 11.06Q17.64 13.01 16.62 13.51L16.62 13.51L16.62 13.51Q16.17 13.73 15.67 13.73L15.67 13.73L15.67 13.73Q15.18 13.73 14.86 13.40L14.86 13.40L14.86 13.40Q14.55 13.08 14.55 12.36L14.55 12.36L14.55 12.36Q14.55 11.37 15.20 10.51L15.20 10.51L15.20 10.51Q15.85 9.65 16.67 9.21L16.67 9.21L16.67 9.21Q17.50 8.78 18.17 8.78L18.17 8.78L18.17 8.78Q19.31 8.90 19.31 9.46L19.31 9.46L19.31 9.46Q19.31 9.62 19.23 9.74L19.23 9.74L19.23 9.74Q19.15 9.86 19.10 9.88L19.10 9.88L19.10 9.88Q19.05 9.90 18.98 9.91L18.98 9.91L18.98 9.91Q18.82 9.95 18.82 10.11ZM17.67 10.75L17.67 10.75L17.67 10.75Q17.22 11.09 16.79 11.61L16.79 11.61L16.79 11.61Q16.37 12.12 16.37 12.45L16.37 12.45L16.37 12.45Q16.37 12.78 16.55 12.78L16.55 12.78L16.55 12.78Q16.83 12.78 17.58 11.92L17.58 11.92L17.58 11.92Q18.33 11.06 18.33 10.50L18.33 10.50L18.33 10.50Q18.33 10.42 18.22 10.42L18.22 10.42L18.22 10.42Q18.12 10.42 17.67 10.75ZM21.70 12.59L21.70 12.59L21.70 12.59Q20.86 13.10 20.34 13.10L20.34 13.10L20.34 13.10Q19.82 13.10 19.56 12.74L19.56 12.74L19.56 12.74Q19.29 12.38 19.29 12.08L19.29 12.08L19.29 12.08Q19.29 11.79 19.47 11.41L19.47 11.41L19.47 11.41Q19.66 11.03 20.04 10.57L20.04 10.57L20.04 10.57Q20.43 10.11 20.93 9.70L20.93 9.70L20.93 9.70Q21.43 9.30 22.17 9.02L22.17 9.02L22.17 9.02Q22.90 8.75 23.70 8.75L23.70 8.75L23.70 8.75Q24.04 8.75 24.47 9.00L24.47 9.00L24.47 9.00Q24.91 9.24 24.91 9.59L24.91 9.59L24.91 9.59Q24.91 9.83 24.51 9.93L24.51 9.93L24.51 9.93Q23.45 10.22 22.42 10.83L22.42 10.83L22.42 10.83Q21.39 11.44 21.39 11.96L21.39 11.96L21.39 11.96Q21.39 12.10 21.52 12.10L21.52 12.10L21.52 12.10Q21.97 12.10 23.15 11.13L23.15 11.13L23.15 11.13Q24.33 10.16 24.37 10.16L24.37 10.16L24.37 10.16Q24.57 10.16 24.57 10.43L24.57 10.43L24.57 10.43Q24.57 11.05 23.94 12.36L23.94 12.36L23.94 12.36Q23.31 13.68 22.39 15.03L22.39 15.03L22.39 15.03Q21.48 16.38 20.27 17.40L20.27 17.40L20.27 17.40Q19.07 18.42 18.06 18.42L18.06 18.42L18.06 18.42Q17.91 18.42 17.69 18.11L17.69 18.11L17.69 18.11Q17.47 17.79 17.47 17.60L17.47 17.60L17.47 17.60Q17.47 17.40 17.49 17.36L17.49 17.36L17.49 17.36Q17.63 16.86 19.29 15.64L19.29 15.64L19.29 15.64Q19.98 15.15 20.65 14.62L20.65 14.62L20.65 14.62Q21.32 14.10 21.78 13.50L21.78 13.50L21.78 13.50Q22.25 12.91 22.25 12.39L22.25 12.39L22.25 12.39Q22.25 12.36 22.15 12.36L22.15 12.36L22.15 12.36Q22.05 12.36 21.70 12.59ZM27.13 12.11L27.13 12.11L27.13 12.11Q27.01 12.11 25.56 13.80L25.56 13.80L25.56 13.80Q24.12 15.50 24.12 15.74L24.12 15.74L24.12 15.74Q24.12 15.86 24.32 15.86L24.32 15.86L24.32 15.86Q24.51 15.86 24.96 15.56L24.96 15.56L24.96 15.56Q25.41 15.26 25.92 14.78L25.92 14.78L25.92 14.78Q26.43 14.31 26.83 13.62L26.83 13.62L26.83 13.62Q27.23 12.92 27.23 12.25L27.23 12.25L27.23 12.25Q27.23 12.11 27.13 12.11ZM30.72 9.97L30.72 9.97L30.72 9.97Q30.72 10.11 29.99 10.58L29.99 10.58L29.99 10.58Q29.26 11.05 28.53 11.44L28.53 11.44L27.79 11.84L27.79 11.84Q27.90 12.12 27.90 12.53L27.90 12.53L27.90 12.53Q27.90 13.36 27.22 14.27L27.22 14.27L27.22 14.27Q26.54 15.18 25.61 15.83L25.61 15.83L25.61 15.83Q24.67 16.49 23.70 16.93L23.70 16.93L23.70 16.93Q22.74 17.36 22.16 17.36L22.16 17.36L22.16 17.36Q21.84 17.36 21.66 17.12L21.66 17.12L21.66 17.12Q21.48 16.87 21.48 16.51L21.48 16.51L21.48 16.51Q21.48 16.14 21.64 15.79L21.64 15.79L21.64 15.79Q22.08 14.80 26.33 10.22L26.33 10.22L26.33 10.22Q26.60 9.94 28.91 7.25L28.91 7.25L28.91 7.25Q31.22 4.55 31.33 4.42L31.33 4.42L31.33 4.42Q31.44 4.28 31.63 4.11L31.63 4.11L31.63 4.11Q31.81 3.93 32.11 3.72L32.11 3.72L32.11 3.72Q32.41 3.51 32.59 3.51L32.59 3.51L32.59 3.51Q32.86 3.51 32.86 3.95L32.86 3.95L32.86 3.95Q32.86 4.75 32.31 5.84L32.31 5.84L32.31 5.84Q32.13 6.19 30.16 8.51L30.16 8.51L30.16 8.51Q28.20 10.84 28.15 10.88L28.15 10.88L28.15 10.88Q28.11 10.93 28.11 11.00L28.11 11.00L28.11 11.00Q28.11 11.06 28.17 11.06L28.17 11.06L28.17 11.06Q28.41 11.06 29.44 10.42L29.44 10.42L29.44 10.42Q30.48 9.77 30.52 9.77L30.52 9.77L30.52 9.77Q30.72 9.77 30.72 9.97ZM31.22 10.71L31.22 10.71L31.91 10.64L31.91 10.64Q32.38 10.64 32.38 11.12L32.38 11.12L32.38 11.12Q32.38 11.37 31.92 11.68L31.92 11.68L31.92 11.68Q31.46 11.98 30.99 12.24L30.99 12.24L30.99 12.24Q30.52 12.50 30.52 12.64L30.52 12.64L30.52 12.64Q30.52 12.74 30.74 12.77L30.74 12.77L30.74 12.77Q31.23 12.77 32.61 11.98L32.61 11.98L32.61 11.98Q33.98 11.20 34.08 11.20L34.08 11.20L34.08 11.20Q34.27 11.20 34.27 11.40L34.27 11.40L34.27 11.40Q34.26 11.54 33.38 12.09L33.38 12.09L33.38 12.09Q32.51 12.64 31.34 13.15L31.34 13.15L31.34 13.15Q30.17 13.66 29.55 13.66L29.55 13.66L29.55 13.66Q28.59 13.66 28.59 12.64L28.59 12.64L28.59 12.64Q28.59 12.35 28.99 12.00L28.99 12.00L28.99 12.00Q29.39 11.65 29.79 11.40L29.79 11.40L29.79 11.40Q30.18 11.14 30.18 11.08L30.18 11.08L30.18 11.08Q30.18 11.02 29.99 10.93L29.99 10.93L29.99 10.93Q29.40 10.68 29.40 10.26L29.40 10.26L29.40 10.26Q29.40 9.48 30.71 8.77L30.71 8.77L30.71 8.77Q32.02 8.06 33.14 8.06L33.14 8.06L33.14 8.06Q33.75 8.06 34.16 8.29L34.16 8.29L34.16 8.29Q34.57 8.53 34.57 9.00L34.57 9.00L34.57 9.00Q34.57 9.46 33.91 9.87L33.91 9.87L33.91 9.87Q33.26 10.28 32.98 10.28L32.98 10.28L32.98 10.28Q32.87 10.28 32.78 10.22L32.78 10.22L32.78 10.22Q32.69 10.16 32.69 10.09L32.69 10.09L32.69 10.09Q32.69 10.02 33.08 9.86L33.08 9.86L33.08 9.86Q33.46 9.70 33.46 9.56L33.46 9.56L33.46 9.56Q33.46 9.49 33.26 9.49L33.26 9.49L33.26 9.49Q33.05 9.49 31.93 9.93L31.93 9.93L31.93 9.93Q30.81 10.37 30.81 10.56L30.81 10.56L30.81 10.56Q30.81 10.71 31.22 10.71ZM36.23 10.71L36.23 10.71L36.92 10.64L36.92 10.64Q37.39 10.64 37.39 11.12L37.39 11.12L37.39 11.12Q37.39 11.37 36.93 11.68L36.93 11.68L36.93 11.68Q36.47 11.98 36.00 12.24L36.00 12.24L36.00 12.24Q35.53 12.50 35.53 12.64L35.53 12.64L35.53 12.64Q35.53 12.74 35.76 12.77L35.76 12.77L35.76 12.77Q36.25 12.77 37.62 11.98L37.62 11.98L37.62 11.98Q38.99 11.20 39.09 11.20L39.09 11.20L39.09 11.20Q39.28 11.20 39.28 11.40L39.28 11.40L39.28 11.40Q39.27 11.54 38.39 12.09L38.39 12.09L38.39 12.09Q37.52 12.64 36.35 13.15L36.35 13.15L36.35 13.15Q35.18 13.66 34.57 13.66L34.57 13.66L34.57 13.66Q33.60 13.66 33.60 12.64L33.60 12.64L33.60 12.64Q33.60 12.35 34.00 12.00L34.00 12.00L34.00 12.00Q34.40 11.65 34.80 11.40L34.80 11.40L34.80 11.40Q35.20 11.14 35.20 11.08L35.20 11.08L35.20 11.08Q35.20 11.02 35.00 10.93L35.00 10.93L35.00 10.93Q34.41 10.68 34.41 10.26L34.41 10.26L34.41 10.26Q34.41 9.48 35.72 8.77L35.72 8.77L35.72 8.77Q37.03 8.06 38.15 8.06L38.15 8.06L38.15 8.06Q38.77 8.06 39.17 8.29L39.17 8.29L39.17 8.29Q39.58 8.53 39.58 9.00L39.58 9.00L39.58 9.00Q39.58 9.46 38.93 9.87L38.93 9.87L38.93 9.87Q38.28 10.28 38.00 10.28L38.00 10.28L38.00 10.28Q37.88 10.28 37.79 10.22L37.79 10.22L37.79 10.22Q37.70 10.16 37.70 10.09L37.70 10.09L37.70 10.09Q37.70 10.02 38.09 9.86L38.09 9.86L38.09 9.86Q38.47 9.70 38.47 9.56L38.47 9.56L38.47 9.56Q38.47 9.49 38.27 9.49L38.27 9.49L38.27 9.49Q38.07 9.49 36.95 9.93L36.95 9.93L36.95 9.93Q35.83 10.37 35.83 10.56L35.83 10.56L35.83 10.56Q35.83 10.71 36.23 10.71ZM42.01 10.44L42.01 10.44L42.01 10.44Q40.94 11.90 40.94 12.43L40.94 12.43L40.94 12.43Q40.94 12.61 41.12 12.61L41.12 12.61L41.12 12.61Q41.61 12.61 42.98 11.83L42.98 11.83L42.98 11.83Q44.35 11.05 44.45 11.05L44.45 11.05L44.45 11.05Q44.65 11.05 44.65 11.21L44.65 11.21L44.65 11.24L44.65 11.24Q44.63 11.33 43.86 11.86L43.86 11.86L43.86 11.86Q43.09 12.39 41.94 12.94L41.94 12.94L41.94 12.94Q40.80 13.48 40.03 13.48L40.03 13.48L40.03 13.48Q38.81 13.48 38.81 12.07L38.81 12.07L38.81 12.07Q38.81 10.79 40.17 9.12L40.17 9.12L40.17 9.12Q41.54 7.45 43.37 6.27L43.37 6.27L43.37 6.27Q45.21 5.10 46.49 5.10L46.49 5.10L46.49 5.10Q47.05 5.10 47.31 5.42L47.31 5.42L47.31 5.42Q47.56 5.74 47.56 6.02L47.56 6.02L47.56 6.02Q47.56 6.58 46.86 7.32L46.86 7.32L46.86 7.32Q46.17 8.06 45.23 8.70L45.23 8.70L45.23 8.70Q44.30 9.34 43.39 9.82L43.39 9.82L43.39 9.82Q42.49 10.30 42.01 10.44ZM46.44 6.22L46.44 6.22L46.44 6.22Q46.21 6.22 45.37 6.94L45.37 6.94L45.37 6.94Q44.52 7.67 43.79 8.41L43.79 8.41L43.06 9.14L43.06 9.14Q42.95 9.25 42.95 9.32L42.95 9.32L42.95 9.32Q42.95 9.38 43.08 9.38L43.08 9.38L43.08 9.38Q43.64 9.38 45.07 8.05L45.07 8.05L45.07 8.05Q46.49 6.72 46.49 6.27L46.49 6.27L46.49 6.27Q46.49 6.22 46.44 6.22Z"></path></g><!----><!----></svg>